<?xml version="1.0" encoding="UTF-8" standalone="no"?>
<!DOCTYPE svg PUBLIC "-//W3C//DTD SVG 1.1//EN" "http://www.w3.org/Graphics/SVG/1.1/DTD/svg11.dtd">
<svg width="100%" height="100%" viewBox="0 0 256 256" version="1.1" xmlns="http://www.w3.org/2000/svg" xmlns:xlink="http://www.w3.org/1999/xlink" xml:space="preserve" xmlns:serif="http://www.serif.com/" style="fill-rule:evenodd;clip-rule:evenodd;stroke-linecap:round;stroke-linejoin:round;stroke-miterlimit:1.5;">
    <g transform="matrix(0.25,0,0,0.25,6.94573,1.65375)">
        <g transform="matrix(0.929615,0,0,0.929615,31.3145,2.05741)">
            <circle cx="487.194" cy="541.437" r="249.054" style="fill:rgb(255,221,15);stroke:rgb(74,148,232);stroke-width:10.76px;"/>
        </g>
        <g transform="matrix(-1.30841,0,0,1.30007,1102.19,-19.8909)">
            <path d="M497.447,61.6C497.447,54.619 491.815,48.951 484.879,48.951L459.742,48.951C452.805,48.951 447.173,54.619 447.173,61.6L447.173,184.477C447.173,191.459 452.805,197.127 459.742,197.127L484.879,197.127C491.815,197.127 497.447,191.459 497.447,184.477L497.447,61.6Z" style="fill:rgb(255,221,15);stroke:rgb(74,148,232);stroke-width:7.67px;"/>
        </g>
        <g transform="matrix(-8.01173e-17,-1.30841,-1.30007,7.96064e-17,1009.49,1123.36)">
            <path d="M497.447,61.6C497.447,54.619 491.815,48.951 484.879,48.951L459.742,48.951C452.805,48.951 447.173,54.619 447.173,61.6L447.173,184.477C447.173,191.459 452.805,197.127 459.742,197.127L484.879,197.127C491.815,197.127 497.447,191.459 497.447,184.477L497.447,61.6Z" style="fill:rgb(255,221,15);stroke:rgb(74,148,232);stroke-width:7.67px;"/>
        </g>
        <g transform="matrix(-8.01173e-17,1.30841,1.30007,7.96064e-17,-41.0588,-112.593)">
            <path d="M497.447,61.6C497.447,54.619 491.815,48.951 484.879,48.951L459.742,48.951C452.805,48.951 447.173,54.619 447.173,61.6L447.173,184.477C447.173,191.459 452.805,197.127 459.742,197.127L484.879,197.127C491.815,197.127 497.447,191.459 497.447,184.477L497.447,61.6Z" style="fill:rgb(255,221,15);stroke:rgb(74,148,232);stroke-width:7.67px;"/>
        </g>
        <g transform="matrix(1.30841,-1.60235e-16,-1.59213e-16,-1.30007,-133.76,1030.66)">
            <path d="M497.447,61.6C497.447,54.619 491.815,48.951 484.879,48.951L459.742,48.951C452.805,48.951 447.173,54.619 447.173,61.6L447.173,184.477C447.173,191.459 452.805,197.127 459.742,197.127L484.879,197.127C491.815,197.127 497.447,191.459 497.447,184.477L497.447,61.6Z" style="fill:rgb(255,221,15);stroke:rgb(74,148,232);stroke-width:7.67px;"/>
        </g>
        <g transform="matrix(0.925189,-0.925189,-0.919289,-0.919289,418.667,1313.79)">
            <path d="M497.447,61.6C497.447,54.619 491.815,48.951 484.879,48.951L459.742,48.951C452.805,48.951 447.173,54.619 447.173,61.6L447.173,184.477C447.173,191.459 452.805,197.127 459.742,197.127L484.879,197.127C491.815,197.127 497.447,191.459 497.447,184.477L497.447,61.6Z" style="fill:rgb(255,221,15);stroke:rgb(74,148,232);stroke-width:7.67px;"/>
        </g>
        <g transform="matrix(-0.925189,0.925189,0.919289,0.919289,549.767,-303.017)">
            <path d="M497.447,61.6C497.447,54.619 491.815,48.951 484.879,48.951L459.742,48.951C452.805,48.951 447.173,54.619 447.173,61.6L447.173,184.477C447.173,191.459 452.805,197.127 459.742,197.127L484.879,197.127C491.815,197.127 497.447,191.459 497.447,184.477L497.447,61.6Z" style="fill:rgb(255,221,15);stroke:rgb(74,148,232);stroke-width:7.67px;"/>
        </g>
        <g transform="matrix(0.846242,0.99791,0.991546,-0.840845,-316.092,373.794)">
            <path d="M497.447,61.6C497.447,54.619 491.815,48.951 484.879,48.951L459.742,48.951C452.805,48.951 447.173,54.619 447.173,61.6L447.173,184.477C447.173,191.459 452.805,197.127 459.742,197.127L484.879,197.127C491.815,197.127 497.447,191.459 497.447,184.477L497.447,61.6Z" style="fill:rgb(255,221,15);stroke:rgb(74,148,232);stroke-width:7.67px;"/>
        </g>
        <g transform="matrix(-0.925189,-0.925189,-0.919289,0.919289,1292.62,570.935)">
            <path d="M497.447,61.6C497.447,54.619 491.815,48.951 484.879,48.951L459.742,48.951C452.805,48.951 447.173,54.619 447.173,61.6L447.173,184.477C447.173,191.459 452.805,197.127 459.742,197.127L484.879,197.127C491.815,197.127 497.447,191.459 497.447,184.477L497.447,61.6Z" style="fill:rgb(255,221,15);stroke:rgb(74,148,232);stroke-width:7.67px;"/>
        </g>
    </g>
</svg>
